<svg class="diagram-root" style="background: #f5f6f6" xmlns="http://www.w3.org/2000/svg" xmlns:xlink="http://www.w3.org/1999/xlink"><style>.diagram-root { font-family: "Helvetica Neue", sans-serif; font-size: 12px; } .t { overflow: visible; } .t-bg { y: 40; fill: #fff;   } .th { fill: #005aa0;   } .tht { fill: #fff; font-size: 14px;  } .tf { fill: #323c46; overflow: visible; } .tf.pk { fill: #005aa0; font-weight: bold; } .tf.fk { font-weight: bold; } .ty { fill: #adb1b5; font-weight: normal; text-anchor: end; } .r { fill: transparent; stroke: #c3c3c3; stroke-width: 1; } .l { stroke: 1; } .i { fill: #c2c7ce; stroke: #c2c7ce; } .i.ix { fill: #afb3b6; stroke: #000; } .fa { fill: transparent; overflow: visible; } .fa .bg.hover { fill: #f7f7f7; } .c { cy: 12; r: 4; stroke: #d2d2dc; fill: #d2d2dc; } .hr { fill: transparent; stroke: #323c46; stroke-opacity: 0.035; stroke-width: 13; } .dc { stroke: #fa5a3c; fill: #fa5a3c; } .x { stroke: white; stroke-width: 1; } .hl .th { fill: #1b9bff; } .hl .tht {  } .fhl .bg { fill: #e7f4ff; } .fhls .bg {  } .r.hl { stroke: #1b9bff; } .dim { opacity: 0.25; }</style><g class="drawing-wrapper" transform="translate(-70.21777777777771, -38.88555555555544) scale(1,1)"><g class="rs"><path d="M 258.7 238.67 m -1, 0 a 1,1 0 1,0 2,0 a 1,1 0 1,0 -2,0 M 258.7 238.67 m -0.5, 0 a 0.5,0.5 0 1,0 1,0 a 0.5,0.5 0 1,0 -1,0  M258.7 238.67 L258.7 238.67 270.7 238.67 M 258.7 244.67 m -1, 0 a 1,1 0 1,0 2,0 a 1,1 0 1,0 -2,0 M 258.7 244.67 m -0.5, 0 a 0.5,0.5 0 1,0 1,0 a 0.5,0.5 0 1,0 -1,0  M258.7 244.67 L258.7 244.67 265.7 238.67 258.7 232.67 M 258.7 232.67 m -1, 0 a 1,1 0 1,0 2,0 a 1,1 0 1,0 -2,0 M 258.7 232.67 m -0.5, 0 a 0.5,0.5 0 1,0 1,0 a 0.5,0.5 0 1,0 -1,0  M270.7 238.67 C 569.74 238.67, 476.35 125.88555555555544, 426.35 125.88555555555544 M 414.35 125.88555555555544 m -1, 0 a 1,1 0 1,0 2,0 a 1,1 0 1,0 -2,0 M 414.35 125.88555555555544 m -0.5, 0 a 0.5,0.5 0 1,0 1,0 a 0.5,0.5 0 1,0 -1,0  M414.35 125.88555555555544 L414.35 125.88555555555544 426.35 125.88555555555544 M420.35 131.88555555555544 L420.35 131.88555555555544 420.35 119.88555555555544" id="h1777828712" class="r"></path><path d="M 258.7 338.66999999999996 m -1, 0 a 1,1 0 1,0 2,0 a 1,1 0 1,0 -2,0 M 258.7 338.66999999999996 m -0.5, 0 a 0.5,0.5 0 1,0 1,0 a 0.5,0.5 0 1,0 -1,0  M258.7 338.66999999999996 L258.7 338.66999999999996 270.7 338.66999999999996 M 258.7 344.66999999999996 m -1, 0 a 1,1 0 1,0 2,0 a 1,1 0 1,0 -2,0 M 258.7 344.66999999999996 m -0.5, 0 a 0.5,0.5 0 1,0 1,0 a 0.5,0.5 0 1,0 -1,0  M258.7 344.66999999999996 L258.7 344.66999999999996 265.7 338.66999999999996 258.7 332.66999999999996 M 258.7 332.66999999999996 m -1, 0 a 1,1 0 1,0 2,0 a 1,1 0 1,0 -2,0 M 258.7 332.66999999999996 m -0.5, 0 a 0.5,0.5 0 1,0 1,0 a 0.5,0.5 0 1,0 -1,0  M270.7 338.66999999999996 Q 301.41 338.66999999999996, 332.13 313.95 T 393.55666666666673 289.22444444444426 M 405.55666666666673 289.22444444444426 m -1, 0 a 1,1 0 1,0 2,0 a 1,1 0 1,0 -2,0 M 405.55666666666673 289.22444444444426 m -0.5, 0 a 0.5,0.5 0 1,0 1,0 a 0.5,0.5 0 1,0 -1,0  M405.55666666666673 289.22444444444426 L405.55666666666673 289.22444444444426 393.55666666666673 289.22444444444426 M399.55666666666673 295.22444444444426 L399.55666666666673 295.22444444444426 399.55666666666673 283.22444444444426" id="h3972919155" class="r"></path><path d="M 258.7 363.66999999999996 m -1, 0 a 1,1 0 1,0 2,0 a 1,1 0 1,0 -2,0 M 258.7 363.66999999999996 m -0.5, 0 a 0.5,0.5 0 1,0 1,0 a 0.5,0.5 0 1,0 -1,0  M258.7 363.66999999999996 L258.7 363.66999999999996 270.7 363.66999999999996 M 258.7 369.66999999999996 m -1, 0 a 1,1 0 1,0 2,0 a 1,1 0 1,0 -2,0 M 258.7 369.66999999999996 m -0.5, 0 a 0.5,0.5 0 1,0 1,0 a 0.5,0.5 0 1,0 -1,0  M258.7 369.66999999999996 L258.7 369.66999999999996 265.7 363.66999999999996 258.7 357.66999999999996 M 258.7 357.66999999999996 m -1, 0 a 1,1 0 1,0 2,0 a 1,1 0 1,0 -2,0 M 258.7 357.66999999999996 m -0.5, 0 a 0.5,0.5 0 1,0 1,0 a 0.5,0.5 0 1,0 -1,0  M270.7 363.66999999999996 Q 304.19 363.66999999999996, 337.68 384.78 T 404.66666666666663 405.88888888888914 M 416.66666666666663 405.88888888888914 m -1, 0 a 1,1 0 1,0 2,0 a 1,1 0 1,0 -2,0 M 416.66666666666663 405.88888888888914 m -0.5, 0 a 0.5,0.5 0 1,0 1,0 a 0.5,0.5 0 1,0 -1,0  M416.66666666666663 405.88888888888914 L416.66666666666663 405.88888888888914 404.66666666666663 405.88888888888914 M410.66666666666663 411.88888888888914 L410.66666666666663 411.88888888888914 410.66666666666663 399.88888888888914" id="h2540954041" class="r"></path><path d="M 258.7 388.66999999999996 m -1, 0 a 1,1 0 1,0 2,0 a 1,1 0 1,0 -2,0 M 258.7 388.66999999999996 m -0.5, 0 a 0.5,0.5 0 1,0 1,0 a 0.5,0.5 0 1,0 -1,0  M258.7 388.66999999999996 L258.7 388.66999999999996 270.7 388.66999999999996 M 258.7 394.66999999999996 m -1, 0 a 1,1 0 1,0 2,0 a 1,1 0 1,0 -2,0 M 258.7 394.66999999999996 m -0.5, 0 a 0.5,0.5 0 1,0 1,0 a 0.5,0.5 0 1,0 -1,0  M258.7 394.66999999999996 L258.7 394.66999999999996 265.7 388.66999999999996 258.7 382.66999999999996 M 258.7 382.66999999999996 m -1, 0 a 1,1 0 1,0 2,0 a 1,1 0 1,0 -2,0 M 258.7 382.66999999999996 m -0.5, 0 a 0.5,0.5 0 1,0 1,0 a 0.5,0.5 0 1,0 -1,0  M270.7 388.66999999999996 Q 304.19 388.66999999999996, 337.68 397.28 T 404.66666666666663 405.88888888888914 M 416.66666666666663 405.88888888888914 m -1, 0 a 1,1 0 1,0 2,0 a 1,1 0 1,0 -2,0 M 416.66666666666663 405.88888888888914 m -0.5, 0 a 0.5,0.5 0 1,0 1,0 a 0.5,0.5 0 1,0 -1,0  M416.66666666666663 405.88888888888914 L416.66666666666663 405.88888888888914 404.66666666666663 405.88888888888914 M410.66666666666663 411.88888888888914 L410.66666666666663 411.88888888888914 410.66666666666663 399.88888888888914" id="h1481352920" class="r"></path><path d="M 534.7 455.88888888888914 m -1, 0 a 1,1 0 1,0 2,0 a 1,1 0 1,0 -2,0 M 534.7 455.88888888888914 m -0.5, 0 a 0.5,0.5 0 1,0 1,0 a 0.5,0.5 0 1,0 -1,0  M534.7 455.88888888888914 L534.7 455.88888888888914 546.7 455.88888888888914 M 534.7 461.88888888888914 m -1, 0 a 1,1 0 1,0 2,0 a 1,1 0 1,0 -2,0 M 534.7 461.88888888888914 m -0.5, 0 a 0.5,0.5 0 1,0 1,0 a 0.5,0.5 0 1,0 -1,0  M534.7 461.88888888888914 L534.7 461.88888888888914 541.7 455.88888888888914 534.7 449.88888888888914 M 534.7 449.88888888888914 m -1, 0 a 1,1 0 1,0 2,0 a 1,1 0 1,0 -2,0 M 534.7 449.88888888888914 m -0.5, 0 a 0.5,0.5 0 1,0 1,0 a 0.5,0.5 0 1,0 -1,0  M546.7 455.88888888888914 Q 563.83 455.88888888888914, 580.96 454.78 T 615.2222222222226 453.666666666666 M 627.2222222222226 453.666666666666 m -1, 0 a 1,1 0 1,0 2,0 a 1,1 0 1,0 -2,0 M 627.2222222222226 453.666666666666 m -0.5, 0 a 0.5,0.5 0 1,0 1,0 a 0.5,0.5 0 1,0 -1,0  M627.2222222222226 453.666666666666 L627.2222222222226 453.666666666666 615.2222222222226 453.666666666666 M621.2222222222226 459.666666666666 L621.2222222222226 459.666666666666 621.2222222222226 447.666666666666" id="h3924951589" class="r"></path></g><g class="hrs"></g><g class="ts"><svg width="166.48" height="250" x="92.22" y="156.67" id="h2744675192" class="t"><rect height="40" width="166.48" class="th"></rect><text x="13" y="25" class="tht">ticket</text><rect height="210" width="166.48" class="t-bg"></rect><text x="13" y="61" class="tf pk">id<tspan x="153.48" class="ty">SERIAL</tspan></text><path d="M7,14A2,2 0 0,1 5,12A2,2 0 0,1 7,10A2,2 0 0,1 9,12A2,2 0 0,1 7,14M12.65,10C11.83,7.67 9.61,6 7, 6A6, 6 0 0, 0 1, 12A6, 6 0 0, 0 7, 18C9.61, 18 11.83, 16.33 12.65, 14H17V18H21V14H23V10H12.65Z" class="i pk" transform="translate(90.79445312499999, 48) scale(0.65)"></path><text x="13" y="86" class="tf fk">passenger<tspan x="153.48" class="ty">INT</tspan></text><text x="13" y="111" class="tf">seat<tspan x="153.48" class="ty">VARCHAR(5)</tspan></text><text x="13" y="136" class="tf">departure<tspan x="153.48" class="ty">TIMESTAMP</tspan></text><text x="13" y="161" class="tf">arrival<tspan x="153.48" class="ty">TIMESTAMP</tspan></text><text x="13" y="186" class="tf fk">airline<tspan x="153.48" class="ty">INT</tspan></text><text x="13" y="211" class="tf fk">from_city<tspan x="153.48" class="ty">INT</tspan></text><text x="13" y="236" class="tf fk">to_city<tspan x="153.48" class="ty">INT</tspan></text></svg><svg width="132.69" height="125" x="281.66333333333426" y="68.88555555555544" id="h2899887242" class="t"><rect height="40" width="132.69" class="th"></rect><text x="13" y="25" class="tht">passenger</text><rect height="85" width="132.69" class="t-bg"></rect><text x="13" y="61" class="tf pk">id<tspan x="119.69" class="ty">SERAIL</tspan></text><path d="M7,14A2,2 0 0,1 5,12A2,2 0 0,1 7,10A2,2 0 0,1 9,12A2,2 0 0,1 7,14M12.65,10C11.83,7.67 9.61,6 7, 6A6, 6 0 0, 0 1, 12A6, 6 0 0, 0 7, 18C9.61, 18 11.83, 16.33 12.65, 14H17V18H21V14H23V10H12.65Z" class="i pk" transform="translate(57.004453125, 48) scale(0.65)"></path><text x="13" y="86" class="tf">first_name<tspan x="119.69" class="ty">TEXT</tspan></text><text x="13" y="111" class="tf">last_name<tspan x="119.69" class="ty">TEXT</tspan></text></svg><svg width="118.03" height="100" x="405.55666666666673" y="232.22444444444426" id="h1325090320" class="t"><rect height="40" width="118.03" class="th"></rect><text x="13" y="25" class="tht">airline</text><rect height="60" width="118.03" class="t-bg"></rect><text x="13" y="61" class="tf pk">id<tspan x="105.03" class="ty">SERIAL</tspan></text><path d="M7,14A2,2 0 0,1 5,12A2,2 0 0,1 7,10A2,2 0 0,1 9,12A2,2 0 0,1 7,14M12.65,10C11.83,7.67 9.61,6 7, 6A6, 6 0 0, 0 1, 12A6, 6 0 0, 0 7, 18C9.61, 18 11.83, 16.33 12.65, 14H17V18H21V14H23V10H12.65Z" class="i pk" transform="translate(42.344453125, 48) scale(0.65)"></path><text x="13" y="86" class="tf">name<tspan x="105.03" class="ty">TEXT</tspan></text></svg><svg width="118.03" height="125" x="416.66666666666663" y="348.88888888888914" id="h1103636238" class="t"><rect height="40" width="118.03" class="th"></rect><text x="13" y="25" class="tht">city</text><rect height="85" width="118.03" class="t-bg"></rect><text x="13" y="61" class="tf pk">id<tspan x="105.03" class="ty">SERIAL</tspan></text><path d="M7,14A2,2 0 0,1 5,12A2,2 0 0,1 7,10A2,2 0 0,1 9,12A2,2 0 0,1 7,14M12.65,10C11.83,7.67 9.61,6 7, 6A6, 6 0 0, 0 1, 12A6, 6 0 0, 0 7, 18C9.61, 18 11.83, 16.33 12.65, 14H17V18H21V14H23V10H12.65Z" class="i pk" transform="translate(42.344453125, 48) scale(0.65)"></path><text x="13" y="86" class="tf">name<tspan x="105.03" class="ty">TEXT</tspan></text><text x="13" y="111" class="tf fk">country<tspan x="105.03" class="ty">INT</tspan></text></svg><svg width="118.03" height="100" x="627.2222222222226" y="396.666666666666" id="h3233356384" class="t"><rect height="40" width="118.03" class="th"></rect><text x="13" y="25" class="tht">country</text><rect height="60" width="118.03" class="t-bg"></rect><text x="13" y="61" class="tf pk">id<tspan x="105.03" class="ty">SERIAL</tspan></text><path d="M7,14A2,2 0 0,1 5,12A2,2 0 0,1 7,10A2,2 0 0,1 9,12A2,2 0 0,1 7,14M12.65,10C11.83,7.67 9.61,6 7, 6A6, 6 0 0, 0 1, 12A6, 6 0 0, 0 7, 18C9.61, 18 11.83, 16.33 12.65, 14H17V18H21V14H23V10H12.65Z" class="i pk" transform="translate(42.344453125, 48) scale(0.65)"></path><text x="13" y="86" class="tf">name<tspan x="105.03" class="ty">TEXT</tspan></text></svg></g></g><text class="qdbd-link" x="10" y="20">www.quickdatabasediagrams.com</text></svg>