<svg class="diagram-root" style="background: #f5f6f6" xmlns="http://www.w3.org/2000/svg" xmlns:xlink="http://www.w3.org/1999/xlink"><style>.diagram-root { font-family: "Helvetica Neue", sans-serif; font-size: 12px; } .t { overflow: visible; } .t-bg { y: 40; fill: #fff;   } .th { fill: #005aa0;   } .tht { fill: #fff; font-size: 14px;  } .tf { fill: #323c46; overflow: visible; } .tf.pk { fill: #005aa0; font-weight: bold; } .tf.fk { font-weight: bold; } .ty { fill: #adb1b5; font-weight: normal; text-anchor: end; } .r { fill: transparent; stroke: #c3c3c3; stroke-width: 1; } .l { stroke: 1; } .i { fill: #c2c7ce; stroke: #c2c7ce; } .i.ix { fill: #afb3b6; stroke: #000; } .fa { fill: transparent; overflow: visible; } .fa .bg.hover { fill: #f7f7f7; } .c { cy: 12; r: 4; stroke: #d2d2dc; fill: #d2d2dc; } .hr { fill: transparent; stroke: #323c46; stroke-opacity: 0.035; stroke-width: 13; } .dc { stroke: #fa5a3c; fill: #fa5a3c; } .x { stroke: white; stroke-width: 1; } .hl .th { fill: #1b9bff; } .hl .tht {  } .fhl .bg { fill: #e7f4ff; } .fhls .bg {  } .r.hl { stroke: #1b9bff; } .dim { opacity: 0.25; }</style><g class="drawing-wrapper" transform="translate(-303, -211.25) scale(1,1)"><g class="rs"><path d="M 501.08 462 m -1, 0 a 1,1 0 1,0 2,0 a 1,1 0 1,0 -2,0 M 501.08 462 m -0.5, 0 a 0.5,0.5 0 1,0 1,0 a 0.5,0.5 0 1,0 -1,0  M501.08 462 L501.08 462 513.0799999999999 462 M 501.08 468 m -1, 0 a 1,1 0 1,0 2,0 a 1,1 0 1,0 -2,0 M 501.08 468 m -0.5, 0 a 0.5,0.5 0 1,0 1,0 a 0.5,0.5 0 1,0 -1,0  M501.08 468 L501.08 468 508.08 462 501.08 456 M 501.08 456 m -1, 0 a 1,1 0 1,0 2,0 a 1,1 0 1,0 -2,0 M 501.08 456 m -0.5, 0 a 0.5,0.5 0 1,0 1,0 a 0.5,0.5 0 1,0 -1,0  M513.0799999999999 462 C 550.7172340759637 462, 562.2972340759636 573.25, 493.78 573.25 M 481.78 573.25 m -1, 0 a 1,1 0 1,0 2,0 a 1,1 0 1,0 -2,0 M 481.78 573.25 m -0.5, 0 a 0.5,0.5 0 1,0 1,0 a 0.5,0.5 0 1,0 -1,0  M481.78 573.25 L481.78 573.25 493.78 573.25 M487.78 579.25 L487.78 579.25 487.78 567.25" id="h2200662385" class="r"></path><path d="M 611.25 513.25 m -1, 0 a 1,1 0 1,0 2,0 a 1,1 0 1,0 -2,0 M 611.25 513.25 m -0.5, 0 a 0.5,0.5 0 1,0 1,0 a 0.5,0.5 0 1,0 -1,0  M611.25 513.25 L611.25 513.25 599.25 513.25 M 611.25 519.25 m -1, 0 a 1,1 0 1,0 2,0 a 1,1 0 1,0 -2,0 M 611.25 519.25 m -0.5, 0 a 0.5,0.5 0 1,0 1,0 a 0.5,0.5 0 1,0 -1,0  M611.25 519.25 L611.25 519.25 604.25 513.25 611.25 507.25 M 611.25 507.25 m -1, 0 a 1,1 0 1,0 2,0 a 1,1 0 1,0 -2,0 M 611.25 507.25 m -0.5, 0 a 0.5,0.5 0 1,0 1,0 a 0.5,0.5 0 1,0 -1,0  M599.25 513.25 Q 577.71 513.25, 556.17 437.63 T 513.0799999999999 362 M 501.08 362 m -1, 0 a 1,1 0 1,0 2,0 a 1,1 0 1,0 -2,0 M 501.08 362 m -0.5, 0 a 0.5,0.5 0 1,0 1,0 a 0.5,0.5 0 1,0 -1,0  M501.08 362 L501.08 362 513.0799999999999 362 M507.08 368 L507.08 368 507.08 356" id="h2493116043" class="r"></path><path d="M 729.28 538.25 m -1, 0 a 1,1 0 1,0 2,0 a 1,1 0 1,0 -2,0 M 729.28 538.25 m -0.5, 0 a 0.5,0.5 0 1,0 1,0 a 0.5,0.5 0 1,0 -1,0  M729.28 538.25 L729.28 538.25 741.28 538.25 M 729.28 544.25 m -1, 0 a 1,1 0 1,0 2,0 a 1,1 0 1,0 -2,0 M 729.28 544.25 m -0.5, 0 a 0.5,0.5 0 1,0 1,0 a 0.5,0.5 0 1,0 -1,0  M729.28 544.25 L729.28 544.25 736.28 538.25 729.28 532.25 M 729.28 532.25 m -1, 0 a 1,1 0 1,0 2,0 a 1,1 0 1,0 -2,0 M 729.28 532.25 m -0.5, 0 a 0.5,0.5 0 1,0 1,0 a 0.5,0.5 0 1,0 -1,0  M741.28 538.25 Q 766.71 538.25, 792.14 521.38 T 843 504.5 M 855 504.5 m -1, 0 a 1,1 0 1,0 2,0 a 1,1 0 1,0 -2,0 M 855 504.5 m -0.5, 0 a 0.5,0.5 0 1,0 1,0 a 0.5,0.5 0 1,0 -1,0  M855 504.5 L855 504.5 843 504.5 M849 510.5 L849 510.5 849 498.5" id="h1538893900" class="r"></path><path d="M 596.25 323.25 m -1, 0 a 1,1 0 1,0 2,0 a 1,1 0 1,0 -2,0 M 596.25 323.25 m -0.5, 0 a 0.5,0.5 0 1,0 1,0 a 0.5,0.5 0 1,0 -1,0  M596.25 323.25 L596.25 323.25 584.25 323.25 M 596.25 329.25 m -1, 0 a 1,1 0 1,0 2,0 a 1,1 0 1,0 -2,0 M 596.25 329.25 m -0.5, 0 a 0.5,0.5 0 1,0 1,0 a 0.5,0.5 0 1,0 -1,0  M596.25 329.25 L596.25 329.25 589.25 323.25 596.25 317.25 M 596.25 317.25 m -1, 0 a 1,1 0 1,0 2,0 a 1,1 0 1,0 -2,0 M 596.25 317.25 m -0.5, 0 a 0.5,0.5 0 1,0 1,0 a 0.5,0.5 0 1,0 -1,0  M584.25 323.25 Q 566.46 323.25, 548.67 342.63 T 513.0799999999999 362 M 501.08 362 m -1, 0 a 1,1 0 1,0 2,0 a 1,1 0 1,0 -2,0 M 501.08 362 m -0.5, 0 a 0.5,0.5 0 1,0 1,0 a 0.5,0.5 0 1,0 -1,0  M501.08 362 L501.08 362 513.0799999999999 362 M507.08 368 L507.08 368 507.08 356" id="h2788753084" class="r"></path><path d="M 724.96 348.25 m -1, 0 a 1,1 0 1,0 2,0 a 1,1 0 1,0 -2,0 M 724.96 348.25 m -0.5, 0 a 0.5,0.5 0 1,0 1,0 a 0.5,0.5 0 1,0 -1,0  M724.96 348.25 L724.96 348.25 736.96 348.25 M 724.96 354.25 m -1, 0 a 1,1 0 1,0 2,0 a 1,1 0 1,0 -2,0 M 724.96 354.25 m -0.5, 0 a 0.5,0.5 0 1,0 1,0 a 0.5,0.5 0 1,0 -1,0  M724.96 354.25 L724.96 354.25 731.96 348.25 724.96 342.25 M 724.96 342.25 m -1, 0 a 1,1 0 1,0 2,0 a 1,1 0 1,0 -2,0 M 724.96 342.25 m -0.5, 0 a 0.5,0.5 0 1,0 1,0 a 0.5,0.5 0 1,0 -1,0  M736.96 348.25 Q 762.85 348.25, 788.73 335.13 T 840.5 322 M 852.5 322 m -1, 0 a 1,1 0 1,0 2,0 a 1,1 0 1,0 -2,0 M 852.5 322 m -0.5, 0 a 0.5,0.5 0 1,0 1,0 a 0.5,0.5 0 1,0 -1,0  M852.5 322 L852.5 322 840.5 322 M846.5 328 L846.5 328 846.5 316" id="h2941836263" class="r"></path></g><g class="hrs"></g><g class="ts"><svg width="176.08" height="175" x="325" y="305" id="h1397465888" class="t"><rect height="40" width="176.08" class="th"></rect><text x="13" y="25" class="tht">songs</text><rect height="135" width="176.08" class="t-bg"></rect><text x="13" y="61" class="tf pk">id<tspan x="163.08" class="ty">SERIAL</tspan></text><path d="M7,14A2,2 0 0,1 5,12A2,2 0 0,1 7,10A2,2 0 0,1 9,12A2,2 0 0,1 7,14M12.65,10C11.83,7.67 9.61,6 7, 6A6, 6 0 0, 0 1, 12A6, 6 0 0, 0 7, 18C9.61, 18 11.83, 16.33 12.65, 14H17V18H21V14H23V10H12.65Z" class="i pk" transform="translate(100.39445312500001, 48) scale(0.65)"></path><text x="13" y="86" class="tf">title<tspan x="163.08" class="ty">TEXT</tspan></text><text x="13" y="111" class="tf">duration_in_seconds<tspan x="163.08" class="ty">INT</tspan></text><text x="13" y="136" class="tf">release_date<tspan x="163.08" class="ty">DATE</tspan></text><text x="13" y="161" class="tf fk">album<tspan x="163.08" class="ty">INT</tspan></text></svg><svg width="118.03" height="125" x="611.25" y="431.25" id="h3974262432" class="t"><rect height="40" width="118.03" class="th"></rect><text x="13" y="25" class="tht">recording</text><rect height="85" width="118.03" class="t-bg"></rect><text x="13" y="61" class="tf pk">id<tspan x="105.03" class="ty">SERIAL</tspan></text><path d="M7,14A2,2 0 0,1 5,12A2,2 0 0,1 7,10A2,2 0 0,1 9,12A2,2 0 0,1 7,14M12.65,10C11.83,7.67 9.61,6 7, 6A6, 6 0 0, 0 1, 12A6, 6 0 0, 0 7, 18C9.61, 18 11.83, 16.33 12.65, 14H17V18H21V14H23V10H12.65Z" class="i pk" transform="translate(42.344453125, 48) scale(0.65)"></path><text x="13" y="86" class="tf fk">song_id<tspan x="105.03" class="ty">INT</tspan></text><text x="13" y="111" class="tf fk">artist_id<tspan x="105.03" class="ty">INT</tspan></text></svg><svg width="128.71" height="125" x="596.25" y="241.25" id="h2121551330" class="t"><rect height="40" width="128.71" class="th"></rect><text x="13" y="25" class="tht">production</text><rect height="85" width="128.71" class="t-bg"></rect><text x="13" y="61" class="tf pk">id<tspan x="115.71000000000001" class="ty">SERIAL</tspan></text><path d="M7,14A2,2 0 0,1 5,12A2,2 0 0,1 7,10A2,2 0 0,1 9,12A2,2 0 0,1 7,14M12.65,10C11.83,7.67 9.61,6 7, 6A6, 6 0 0, 0 1, 12A6, 6 0 0, 0 7, 18C9.61, 18 11.83, 16.33 12.65, 14H17V18H21V14H23V10H12.65Z" class="i pk" transform="translate(53.02445312500001, 48) scale(0.65)"></path><text x="13" y="86" class="tf fk">song_id<tspan x="115.71000000000001" class="ty">INT</tspan></text><text x="13" y="111" class="tf fk">producer_id<tspan x="115.71000000000001" class="ty">INT</tspan></text></svg><svg width="118.03" height="100" x="852.5" y="265" id="h568809404" class="t"><rect height="40" width="118.03" class="th"></rect><text x="13" y="25" class="tht">producers</text><rect height="60" width="118.03" class="t-bg"></rect><text x="13" y="61" class="tf pk">id<tspan x="105.03" class="ty">SERIAL</tspan></text><path d="M7,14A2,2 0 0,1 5,12A2,2 0 0,1 7,10A2,2 0 0,1 9,12A2,2 0 0,1 7,14M12.65,10C11.83,7.67 9.61,6 7, 6A6, 6 0 0, 0 1, 12A6, 6 0 0, 0 7, 18C9.61, 18 11.83, 16.33 12.65, 14H17V18H21V14H23V10H12.65Z" class="i pk" transform="translate(42.344453125, 48) scale(0.65)"></path><text x="13" y="86" class="tf">name<tspan x="105.03" class="ty">TEXT</tspan></text></svg><svg width="118.03" height="100" x="855" y="447.5" id="h3332549476" class="t"><rect height="40" width="118.03" class="th"></rect><text x="13" y="25" class="tht">artists</text><rect height="60" width="118.03" class="t-bg"></rect><text x="13" y="61" class="tf pk">id<tspan x="105.03" class="ty">SERIAL</tspan></text><path d="M7,14A2,2 0 0,1 5,12A2,2 0 0,1 7,10A2,2 0 0,1 9,12A2,2 0 0,1 7,14M12.65,10C11.83,7.67 9.61,6 7, 6A6, 6 0 0, 0 1, 12A6, 6 0 0, 0 7, 18C9.61, 18 11.83, 16.33 12.65, 14H17V18H21V14H23V10H12.65Z" class="i pk" transform="translate(42.344453125, 48) scale(0.65)"></path><text x="13" y="86" class="tf">name<tspan x="105.03" class="ty">TEXT</tspan></text></svg><svg width="118.03" height="100" x="363.75" y="516.25" id="h2636733024" class="t"><rect height="40" width="118.03" class="th"></rect><text x="13" y="25" class="tht">album</text><rect height="60" width="118.03" class="t-bg"></rect><text x="13" y="61" class="tf pk">id<tspan x="105.03" class="ty">SERIAL</tspan></text><path d="M7,14A2,2 0 0,1 5,12A2,2 0 0,1 7,10A2,2 0 0,1 9,12A2,2 0 0,1 7,14M12.65,10C11.83,7.67 9.61,6 7, 6A6, 6 0 0, 0 1, 12A6, 6 0 0, 0 7, 18C9.61, 18 11.83, 16.33 12.65, 14H17V18H21V14H23V10H12.65Z" class="i pk" transform="translate(42.344453125, 48) scale(0.65)"></path><text x="13" y="86" class="tf">name<tspan x="105.03" class="ty">TEXT</tspan></text></svg></g></g><text class="qdbd-link" x="10" y="20">www.quickdatabasediagrams.com</text></svg>