<svg class="diagram-root" style="background: #f5f6f6" xmlns="http://www.w3.org/2000/svg" xmlns:xlink="http://www.w3.org/1999/xlink"><style>.diagram-root { font-family: "Helvetica Neue", sans-serif; font-size: 12px; } .t { overflow: visible; } .t-bg { y: 40; fill: #fff;   } .th { fill: #005aa0;   } .tht { fill: #fff; font-size: 14px;  } .tf { fill: #323c46; overflow: visible; } .tf.pk { fill: #005aa0; font-weight: bold; } .tf.fk { font-weight: bold; } .ty { fill: #adb1b5; font-weight: normal; text-anchor: end; } .r { fill: transparent; stroke: #c3c3c3; stroke-width: 1; } .l { stroke: 1; } .i { fill: #c2c7ce; stroke: #c2c7ce; } .i.ix { fill: #afb3b6; stroke: #000; } .fa { fill: transparent; overflow: visible; } .fa .bg.hover { fill: #f7f7f7; } .c { cy: 12; r: 4; stroke: #d2d2dc; fill: #d2d2dc; } .hr { fill: transparent; stroke: #323c46; stroke-opacity: 0.035; stroke-width: 13; } .dc { stroke: #fa5a3c; fill: #fa5a3c; } .x { stroke: white; stroke-width: 1; } .hl .th { fill: #1b9bff; } .hl .tht {  } .fhl .bg { fill: #e7f4ff; } .fhls .bg {  } .r.hl { stroke: #1b9bff; } .dim { opacity: 0.25; }</style><g class="drawing-wrapper" transform="translate(-251.1111111111111, -153.33333333333334) scale(1,1)"><g class="rs"><path d="M 494.99 393.99999999999994 m -1, 0 a 1,1 0 1,0 2,0 a 1,1 0 1,0 -2,0 M 494.99 393.99999999999994 m -0.5, 0 a 0.5,0.5 0 1,0 1,0 a 0.5,0.5 0 1,0 -1,0  M494.99 393.99999999999994 L494.99 393.99999999999994 506.99 393.99999999999994 M 494.99 399.99999999999994 m -1, 0 a 1,1 0 1,0 2,0 a 1,1 0 1,0 -2,0 M 494.99 399.99999999999994 m -0.5, 0 a 0.5,0.5 0 1,0 1,0 a 0.5,0.5 0 1,0 -1,0  M494.99 399.99999999999994 L494.99 399.99999999999994 501.99 393.99999999999994 494.99 387.99999999999994 M 494.99 387.99999999999994 m -1, 0 a 1,1 0 1,0 2,0 a 1,1 0 1,0 -2,0 M 494.99 387.99999999999994 m -0.5, 0 a 0.5,0.5 0 1,0 1,0 a 0.5,0.5 0 1,0 -1,0  M506.99 393.99999999999994 C 546.7563427542614 393.99999999999994, 559.3323427542614 511.4433333333339, 486.03 511.4433333333339 M 474.03 511.4433333333339 m -1, 0 a 1,1 0 1,0 2,0 a 1,1 0 1,0 -2,0 M 474.03 511.4433333333339 m -0.5, 0 a 0.5,0.5 0 1,0 1,0 a 0.5,0.5 0 1,0 -1,0  M474.03 511.4433333333339 L474.03 511.4433333333339 486.03 511.4433333333339 M480.03 517.4433333333338 L480.03 517.4433333333338 480.03 505.4433333333339" id="h957104766" class="r"></path><path d="M 494.99 418.99999999999994 m -1, 0 a 1,1 0 1,0 2,0 a 1,1 0 1,0 -2,0 M 494.99 418.99999999999994 m -0.5, 0 a 0.5,0.5 0 1,0 1,0 a 0.5,0.5 0 1,0 -1,0  M494.99 418.99999999999994 L494.99 418.99999999999994 506.99 418.99999999999994 M 494.99 424.99999999999994 m -1, 0 a 1,1 0 1,0 2,0 a 1,1 0 1,0 -2,0 M 494.99 424.99999999999994 m -0.5, 0 a 0.5,0.5 0 1,0 1,0 a 0.5,0.5 0 1,0 -1,0  M494.99 424.99999999999994 L494.99 424.99999999999994 501.99 418.99999999999994 494.99 412.99999999999994 M 494.99 412.99999999999994 m -1, 0 a 1,1 0 1,0 2,0 a 1,1 0 1,0 -2,0 M 494.99 412.99999999999994 m -0.5, 0 a 0.5,0.5 0 1,0 1,0 a 0.5,0.5 0 1,0 -1,0  M506.99 418.99999999999994 Q 527.25 418.99999999999994, 547.5 469.67 T 588 520.3333333333334 M 600 520.3333333333334 m -1, 0 a 1,1 0 1,0 2,0 a 1,1 0 1,0 -2,0 M 600 520.3333333333334 m -0.5, 0 a 0.5,0.5 0 1,0 1,0 a 0.5,0.5 0 1,0 -1,0  M600 520.3333333333334 L600 520.3333333333334 588 520.3333333333334 M594 526.3333333333334 L594 526.3333333333334 594 514.3333333333334" id="h124153304" class="r"></path><path d="M 474.03 561.4433333333338 m -1, 0 a 1,1 0 1,0 2,0 a 1,1 0 1,0 -2,0 M 474.03 561.4433333333338 m -0.5, 0 a 0.5,0.5 0 1,0 1,0 a 0.5,0.5 0 1,0 -1,0  M474.03 561.4433333333338 L474.03 561.4433333333338 486.03 561.4433333333338 M 474.03 567.4433333333338 m -1, 0 a 1,1 0 1,0 2,0 a 1,1 0 1,0 -2,0 M 474.03 567.4433333333338 m -0.5, 0 a 0.5,0.5 0 1,0 1,0 a 0.5,0.5 0 1,0 -1,0  M474.03 567.4433333333338 L474.03 567.4433333333338 481.03 561.4433333333338 474.03 555.4433333333338 M 474.03 555.4433333333338 m -1, 0 a 1,1 0 1,0 2,0 a 1,1 0 1,0 -2,0 M 474.03 555.4433333333338 m -0.5, 0 a 0.5,0.5 0 1,0 1,0 a 0.5,0.5 0 1,0 -1,0  M486.03 561.4433333333338 Q 511.53 561.4433333333338, 537.02 540.89 T 588 520.3333333333334 M 600 520.3333333333334 m -1, 0 a 1,1 0 1,0 2,0 a 1,1 0 1,0 -2,0 M 600 520.3333333333334 m -0.5, 0 a 0.5,0.5 0 1,0 1,0 a 0.5,0.5 0 1,0 -1,0  M600 520.3333333333334 L600 520.3333333333334 588 520.3333333333334 M594 526.3333333333334 L594 526.3333333333334 594 514.3333333333334" id="h2647444645" class="r"></path><path d="M 632.2222222222223 265.33333333333337 m -1, 0 a 1,1 0 1,0 2,0 a 1,1 0 1,0 -2,0 M 632.2222222222223 265.33333333333337 m -0.5, 0 a 0.5,0.5 0 1,0 1,0 a 0.5,0.5 0 1,0 -1,0  M632.2222222222223 265.33333333333337 L632.2222222222223 265.33333333333337 620.2222222222223 265.33333333333337 M 632.2222222222223 271.33333333333337 m -1, 0 a 1,1 0 1,0 2,0 a 1,1 0 1,0 -2,0 M 632.2222222222223 271.33333333333337 m -0.5, 0 a 0.5,0.5 0 1,0 1,0 a 0.5,0.5 0 1,0 -1,0  M632.2222222222223 271.33333333333337 L632.2222222222223 271.33333333333337 625.2222222222223 265.33333333333337 632.2222222222223 259.33333333333337 M 632.2222222222223 259.33333333333337 m -1, 0 a 1,1 0 1,0 2,0 a 1,1 0 1,0 -2,0 M 632.2222222222223 259.33333333333337 m -0.5, 0 a 0.5,0.5 0 1,0 1,0 a 0.5,0.5 0 1,0 -1,0  M620.2222222222223 265.33333333333337 Q 591.92 265.33333333333337, 563.61 292.17 T 506.99 318.99999999999994 M 494.99 318.99999999999994 m -1, 0 a 1,1 0 1,0 2,0 a 1,1 0 1,0 -2,0 M 494.99 318.99999999999994 m -0.5, 0 a 0.5,0.5 0 1,0 1,0 a 0.5,0.5 0 1,0 -1,0  M494.99 318.99999999999994 L494.99 318.99999999999994 506.99 318.99999999999994 M500.99 324.99999999999994 L500.99 324.99999999999994 500.99 312.99999999999994" id="h2220687565" class="r"></path><path d="M 753.17 290.33333333333337 m -1, 0 a 1,1 0 1,0 2,0 a 1,1 0 1,0 -2,0 M 753.17 290.33333333333337 m -0.5, 0 a 0.5,0.5 0 1,0 1,0 a 0.5,0.5 0 1,0 -1,0  M753.17 290.33333333333337 L753.17 290.33333333333337 765.17 290.33333333333337 M 753.17 296.33333333333337 m -1, 0 a 1,1 0 1,0 2,0 a 1,1 0 1,0 -2,0 M 753.17 296.33333333333337 m -0.5, 0 a 0.5,0.5 0 1,0 1,0 a 0.5,0.5 0 1,0 -1,0  M753.17 296.33333333333337 L753.17 296.33333333333337 760.17 290.33333333333337 753.17 284.33333333333337 M 753.17 284.33333333333337 m -1, 0 a 1,1 0 1,0 2,0 a 1,1 0 1,0 -2,0 M 753.17 284.33333333333337 m -0.5, 0 a 0.5,0.5 0 1,0 1,0 a 0.5,0.5 0 1,0 -1,0  M765.17 290.33333333333337 C 828.3247139066207 290.33333333333337, 818.1427139066207 397, 782.14 397 M 770.14 397 m -1, 0 a 1,1 0 1,0 2,0 a 1,1 0 1,0 -2,0 M 770.14 397 m -0.5, 0 a 0.5,0.5 0 1,0 1,0 a 0.5,0.5 0 1,0 -1,0  M770.14 397 L770.14 397 782.14 397 M776.14 403 L776.14 403 776.14 391" id="h3186922039" class="r"></path></g><g class="hrs"></g><g class="ts"><svg width="120.95" height="125" x="632.2222222222223" y="183.33333333333334" id="h3773622975" class="t"><rect height="40" width="120.95" class="th"></rect><text x="13" y="25" class="tht">planets_moons</text><rect height="85" width="120.95" class="t-bg"></rect><text x="13" y="61" class="tf pk">id<tspan x="107.95" class="ty">SERIAL</tspan></text><path d="M7,14A2,2 0 0,1 5,12A2,2 0 0,1 7,10A2,2 0 0,1 9,12A2,2 0 0,1 7,14M12.65,10C11.83,7.67 9.61,6 7, 6A6, 6 0 0, 0 1, 12A6, 6 0 0, 0 7, 18C9.61, 18 11.83, 16.33 12.65, 14H17V18H21V14H23V10H12.65Z" class="i pk" transform="translate(45.264453125, 48) scale(0.65)"></path><text x="13" y="86" class="tf fk">planet_id<tspan x="107.95" class="ty">INT</tspan></text><text x="13" y="111" class="tf fk">moon_id<tspan x="107.95" class="ty">INT</tspan></text></svg><svg width="155.14" height="100" x="600" y="463.33333333333337" id="h1210228382" class="t"><rect height="40" width="155.14" class="th"></rect><text x="13" y="25" class="tht">galaxy</text><rect height="60" width="155.14" class="t-bg"></rect><text x="13" y="61" class="tf pk">id<tspan x="142.14" class="ty">SERIAL</tspan></text><path d="M7,14A2,2 0 0,1 5,12A2,2 0 0,1 7,10A2,2 0 0,1 9,12A2,2 0 0,1 7,14M12.65,10C11.83,7.67 9.61,6 7, 6A6, 6 0 0, 0 1, 12A6, 6 0 0, 0 7, 18C9.61, 18 11.83, 16.33 12.65, 14H17V18H21V14H23V10H12.65Z" class="i pk" transform="translate(79.45445312499999, 48) scale(0.65)"></path><text x="13" y="86" class="tf">name<tspan x="142.14" class="ty">VARCHAR(25)</tspan></text></svg><svg width="221.88" height="175" x="273.1111111111111" y="261.99999999999994" id="h3417360113" class="t"><rect height="40" width="221.88" class="th"></rect><text x="13" y="25" class="tht">planets</text><rect height="135" width="221.88" class="t-bg"></rect><text x="13" y="61" class="tf pk">id<tspan x="208.88" class="ty">SERIAL</tspan></text><path d="M7,14A2,2 0 0,1 5,12A2,2 0 0,1 7,10A2,2 0 0,1 9,12A2,2 0 0,1 7,14M12.65,10C11.83,7.67 9.61,6 7, 6A6, 6 0 0, 0 1, 12A6, 6 0 0, 0 7, 18C9.61, 18 11.83, 16.33 12.65, 14H17V18H21V14H23V10H12.65Z" class="i pk" transform="translate(146.194453125, 48) scale(0.65)"></path><text x="13" y="86" class="tf">name<tspan x="208.88" class="ty">VARCHAR(25)</tspan></text><text x="13" y="111" class="tf">orbital_period_in_years<tspan x="208.88" class="ty">FLOAT?</tspan></text><text x="13" y="136" class="tf fk">orbits_around<tspan x="208.88" class="ty">INT</tspan></text><text x="13" y="161" class="tf fk">galaxy<tspan x="208.88" class="ty">INT</tspan></text></svg><svg width="155.14" height="100" x="614.9999999999998" y="340" id="h4291935217" class="t"><rect height="40" width="155.14" class="th"></rect><text x="13" y="25" class="tht">moons</text><rect height="60" width="155.14" class="t-bg"></rect><text x="13" y="61" class="tf pk">id<tspan x="142.14" class="ty">SERIAL</tspan></text><path d="M7,14A2,2 0 0,1 5,12A2,2 0 0,1 7,10A2,2 0 0,1 9,12A2,2 0 0,1 7,14M12.65,10C11.83,7.67 9.61,6 7, 6A6, 6 0 0, 0 1, 12A6, 6 0 0, 0 7, 18C9.61, 18 11.83, 16.33 12.65, 14H17V18H21V14H23V10H12.65Z" class="i pk" transform="translate(79.45445312499999, 48) scale(0.65)"></path><text x="13" y="86" class="tf">name<tspan x="142.14" class="ty">VARCHAR(25)</tspan></text></svg><svg width="155.14" height="150" x="318.892222222222" y="454.4433333333339" id="h3967228636" class="t"><rect height="40" width="155.14" class="th"></rect><text x="13" y="25" class="tht">primary_body</text><rect height="110" width="155.14" class="t-bg"></rect><text x="13" y="61" class="tf pk">id<tspan x="142.14" class="ty">SERIAL</tspan></text><path d="M7,14A2,2 0 0,1 5,12A2,2 0 0,1 7,10A2,2 0 0,1 9,12A2,2 0 0,1 7,14M12.65,10C11.83,7.67 9.61,6 7, 6A6, 6 0 0, 0 1, 12A6, 6 0 0, 0 7, 18C9.61, 18 11.83, 16.33 12.65, 14H17V18H21V14H23V10H12.65Z" class="i pk" transform="translate(79.45445312499999, 48) scale(0.65)"></path><text x="13" y="86" class="tf">name<tspan x="142.14" class="ty">VARCHAR(25)</tspan></text><text x="13" y="111" class="tf fk">galaxy<tspan x="142.14" class="ty">INT</tspan></text><text x="13" y="136" class="tf">description<tspan x="142.14" class="ty">TEXT?</tspan></text></svg></g></g><text class="qdbd-link" x="10" y="20">www.quickdatabasediagrams.com</text></svg>