<svg class="diagram-root" style="background: #f5f6f6" xmlns="http://www.w3.org/2000/svg" xmlns:xlink="http://www.w3.org/1999/xlink"><style>.diagram-root { font-family: "Helvetica Neue", sans-serif; font-size: 12px; } .t { overflow: visible; } .t-bg { y: 40; fill: #fff;   } .th { fill: #005aa0;   } .tht { fill: #fff; font-size: 14px;  } .tf { fill: #323c46; overflow: visible; } .tf.pk { fill: #005aa0; font-weight: bold; } .tf.fk { font-weight: bold; } .ty { fill: #adb1b5; font-weight: normal; text-anchor: end; } .r { fill: transparent; stroke: #c3c3c3; stroke-width: 1; } .l { stroke: 1; } .i { fill: #c2c7ce; stroke: #c2c7ce; } .i.ix { fill: #afb3b6; stroke: #000; } .fa { fill: transparent; overflow: visible; } .fa .bg.hover { fill: #f7f7f7; } .c { cy: 12; r: 4; stroke: #d2d2dc; fill: #d2d2dc; } .hr { fill: transparent; stroke: #323c46; stroke-opacity: 0.035; stroke-width: 13; } .dc { stroke: #fa5a3c; fill: #fa5a3c; } .x { stroke: white; stroke-width: 1; } .hl .th { fill: #1b9bff; } .hl .tht {  } .fhl .bg { fill: #e7f4ff; } .fhls .bg {  } .r.hl { stroke: #1b9bff; } .dim { opacity: 0.25; }</style><g class="drawing-wrapper" transform="translate(49, -83) scale(1,1)"><g class="rs"><path d="M 213 599 m -1, 0 a 1,1 0 1,0 2,0 a 1,1 0 1,0 -2,0 M 213 599 m -0.5, 0 a 0.5,0.5 0 1,0 1,0 a 0.5,0.5 0 1,0 -1,0  M213 599 L213 599 201 599 M 213 605 m -1, 0 a 1,1 0 1,0 2,0 a 1,1 0 1,0 -2,0 M 213 605 m -0.5, 0 a 0.5,0.5 0 1,0 1,0 a 0.5,0.5 0 1,0 -1,0  M213 605 L213 605 206 599 213 593 M 213 593 m -1, 0 a 1,1 0 1,0 2,0 a 1,1 0 1,0 -2,0 M 213 593 m -0.5, 0 a 0.5,0.5 0 1,0 1,0 a 0.5,0.5 0 1,0 -1,0  M201 599 Q 185.79 599, 170.57 511 T 140.14 423 M 128.14 423 m -1, 0 a 1,1 0 1,0 2,0 a 1,1 0 1,0 -2,0 M 128.14 423 m -0.5, 0 a 0.5,0.5 0 1,0 1,0 a 0.5,0.5 0 1,0 -1,0  M128.14 423 L128.14 423 140.14 423 M134.14 429 L134.14 429 134.14 417" id="h705733910" class="r"></path><path d="M 304 359 m -1, 0 a 1,1 0 1,0 2,0 a 1,1 0 1,0 -2,0 M 304 359 m -0.5, 0 a 0.5,0.5 0 1,0 1,0 a 0.5,0.5 0 1,0 -1,0  M304 359 L304 359 292 359 M 304 365 m -1, 0 a 1,1 0 1,0 2,0 a 1,1 0 1,0 -2,0 M 304 365 m -0.5, 0 a 0.5,0.5 0 1,0 1,0 a 0.5,0.5 0 1,0 -1,0  M304 365 L304 365 297 359 304 353 M 304 353 m -1, 0 a 1,1 0 1,0 2,0 a 1,1 0 1,0 -2,0 M 304 353 m -0.5, 0 a 0.5,0.5 0 1,0 1,0 a 0.5,0.5 0 1,0 -1,0  M292 359 C 242 359, 242 185, 292 185 M 304 185 m -1, 0 a 1,1 0 1,0 2,0 a 1,1 0 1,0 -2,0 M 304 185 m -0.5, 0 a 0.5,0.5 0 1,0 1,0 a 0.5,0.5 0 1,0 -1,0  M304 185 L304 185 292 185 M298 191 L298 191 298 179" id="h2245120304" class="r"></path><path d="M 304 384 m -1, 0 a 1,1 0 1,0 2,0 a 1,1 0 1,0 -2,0 M 304 384 m -0.5, 0 a 0.5,0.5 0 1,0 1,0 a 0.5,0.5 0 1,0 -1,0  M304 384 L304 384 292 384 M 304 390 m -1, 0 a 1,1 0 1,0 2,0 a 1,1 0 1,0 -2,0 M 304 390 m -0.5, 0 a 0.5,0.5 0 1,0 1,0 a 0.5,0.5 0 1,0 -1,0  M304 390 L304 390 297 384 304 378 M 304 378 m -1, 0 a 1,1 0 1,0 2,0 a 1,1 0 1,0 -2,0 M 304 378 m -0.5, 0 a 0.5,0.5 0 1,0 1,0 a 0.5,0.5 0 1,0 -1,0  M292 384 Q 254.04 384, 216.07 403.5 T 140.14 423 M 128.14 423 m -1, 0 a 1,1 0 1,0 2,0 a 1,1 0 1,0 -2,0 M 128.14 423 m -0.5, 0 a 0.5,0.5 0 1,0 1,0 a 0.5,0.5 0 1,0 -1,0  M128.14 423 L128.14 423 140.14 423 M134.14 429 L134.14 429 134.14 417" id="h2393783664" class="r"></path><path d="M 304 409 m -1, 0 a 1,1 0 1,0 2,0 a 1,1 0 1,0 -2,0 M 304 409 m -0.5, 0 a 0.5,0.5 0 1,0 1,0 a 0.5,0.5 0 1,0 -1,0  M304 409 L304 409 292 409 M 304 415 m -1, 0 a 1,1 0 1,0 2,0 a 1,1 0 1,0 -2,0 M 304 415 m -0.5, 0 a 0.5,0.5 0 1,0 1,0 a 0.5,0.5 0 1,0 -1,0  M304 415 L304 415 297 409 304 403 M 304 403 m -1, 0 a 1,1 0 1,0 2,0 a 1,1 0 1,0 -2,0 M 304 403 m -0.5, 0 a 0.5,0.5 0 1,0 1,0 a 0.5,0.5 0 1,0 -1,0  M292 409 Q 254.04 409, 216.07 416 T 140.14 423 M 128.14 423 m -1, 0 a 1,1 0 1,0 2,0 a 1,1 0 1,0 -2,0 M 128.14 423 m -0.5, 0 a 0.5,0.5 0 1,0 1,0 a 0.5,0.5 0 1,0 -1,0  M128.14 423 L128.14 423 140.14 423 M134.14 429 L134.14 429 134.14 417" id="h2324494456" class="r"></path><path d="M 540 195 m -1, 0 a 1,1 0 1,0 2,0 a 1,1 0 1,0 -2,0 M 540 195 m -0.5, 0 a 0.5,0.5 0 1,0 1,0 a 0.5,0.5 0 1,0 -1,0  M540 195 L540 195 528 195 M 540 201 m -1, 0 a 1,1 0 1,0 2,0 a 1,1 0 1,0 -2,0 M 540 201 m -0.5, 0 a 0.5,0.5 0 1,0 1,0 a 0.5,0.5 0 1,0 -1,0  M540 201 L540 201 533 195 540 189 M 540 189 m -1, 0 a 1,1 0 1,0 2,0 a 1,1 0 1,0 -2,0 M 540 189 m -0.5, 0 a 0.5,0.5 0 1,0 1,0 a 0.5,0.5 0 1,0 -1,0  M528 195 Q 504.51 195, 481.02 264.5 T 434.03 334 M 422.03 334 m -1, 0 a 1,1 0 1,0 2,0 a 1,1 0 1,0 -2,0 M 422.03 334 m -0.5, 0 a 0.5,0.5 0 1,0 1,0 a 0.5,0.5 0 1,0 -1,0  M422.03 334 L422.03 334 434.03 334 M428.03 340 L428.03 340 428.03 328" id="h2095969670" class="r"></path><path d="M 540 220 m -1, 0 a 1,1 0 1,0 2,0 a 1,1 0 1,0 -2,0 M 540 220 m -0.5, 0 a 0.5,0.5 0 1,0 1,0 a 0.5,0.5 0 1,0 -1,0  M540 220 L540 220 528 220 M 540 226 m -1, 0 a 1,1 0 1,0 2,0 a 1,1 0 1,0 -2,0 M 540 226 m -0.5, 0 a 0.5,0.5 0 1,0 1,0 a 0.5,0.5 0 1,0 -1,0  M540 226 L540 226 533 220 540 214 M 540 214 m -1, 0 a 1,1 0 1,0 2,0 a 1,1 0 1,0 -2,0 M 540 214 m -0.5, 0 a 0.5,0.5 0 1,0 1,0 a 0.5,0.5 0 1,0 -1,0  M528 220 C 486.98780669118025 220, 485.18780669118024 343, 531 343 M 543 343 m -1, 0 a 1,1 0 1,0 2,0 a 1,1 0 1,0 -2,0 M 543 343 m -0.5, 0 a 0.5,0.5 0 1,0 1,0 a 0.5,0.5 0 1,0 -1,0  M543 343 L543 343 531 343 M537 349 L537 349 537 337" id="h408580199" class="r"></path><path d="M 515 511 m -1, 0 a 1,1 0 1,0 2,0 a 1,1 0 1,0 -2,0 M 515 511 m -0.5, 0 a 0.5,0.5 0 1,0 1,0 a 0.5,0.5 0 1,0 -1,0  M515 511 L515 511 503 511 M 515 517 m -1, 0 a 1,1 0 1,0 2,0 a 1,1 0 1,0 -2,0 M 515 517 m -0.5, 0 a 0.5,0.5 0 1,0 1,0 a 0.5,0.5 0 1,0 -1,0  M515 517 L515 517 508 511 515 505 M 515 505 m -1, 0 a 1,1 0 1,0 2,0 a 1,1 0 1,0 -2,0 M 515 505 m -0.5, 0 a 0.5,0.5 0 1,0 1,0 a 0.5,0.5 0 1,0 -1,0  M503 511 Q 485.76 511, 468.52 422.5 T 434.03 334 M 422.03 334 m -1, 0 a 1,1 0 1,0 2,0 a 1,1 0 1,0 -2,0 M 422.03 334 m -0.5, 0 a 0.5,0.5 0 1,0 1,0 a 0.5,0.5 0 1,0 -1,0  M422.03 334 L422.03 334 434.03 334 M428.03 340 L428.03 340 428.03 328" id="h3813677252" class="r"></path><path d="M 515 536 m -1, 0 a 1,1 0 1,0 2,0 a 1,1 0 1,0 -2,0 M 515 536 m -0.5, 0 a 0.5,0.5 0 1,0 1,0 a 0.5,0.5 0 1,0 -1,0  M515 536 L515 536 503 536 M 515 542 m -1, 0 a 1,1 0 1,0 2,0 a 1,1 0 1,0 -2,0 M 515 542 m -0.5, 0 a 0.5,0.5 0 1,0 1,0 a 0.5,0.5 0 1,0 -1,0  M515 542 L515 542 508 536 515 530 M 515 530 m -1, 0 a 1,1 0 1,0 2,0 a 1,1 0 1,0 -2,0 M 515 530 m -0.5, 0 a 0.5,0.5 0 1,0 1,0 a 0.5,0.5 0 1,0 -1,0  M503 536 Q 472.29 536, 441.57 542.5 T 380.14 549 M 368.14 549 m -1, 0 a 1,1 0 1,0 2,0 a 1,1 0 1,0 -2,0 M 368.14 549 m -0.5, 0 a 0.5,0.5 0 1,0 1,0 a 0.5,0.5 0 1,0 -1,0  M368.14 549 L368.14 549 380.14 549 M374.14 555 L374.14 555 374.14 543" id="h801473166" class="r"></path><path d="M 199.03 251 m -1, 0 a 1,1 0 1,0 2,0 a 1,1 0 1,0 -2,0 M 199.03 251 m -0.5, 0 a 0.5,0.5 0 1,0 1,0 a 0.5,0.5 0 1,0 -1,0  M199.03 251 L199.03 251 211.03 251 M 199.03 257 m -1, 0 a 1,1 0 1,0 2,0 a 1,1 0 1,0 -2,0 M 199.03 257 m -0.5, 0 a 0.5,0.5 0 1,0 1,0 a 0.5,0.5 0 1,0 -1,0  M199.03 257 L199.03 257 206.03 251 199.03 245 M 199.03 245 m -1, 0 a 1,1 0 1,0 2,0 a 1,1 0 1,0 -2,0 M 199.03 245 m -0.5, 0 a 0.5,0.5 0 1,0 1,0 a 0.5,0.5 0 1,0 -1,0  M211.03 251 Q 231.28 251, 251.52 292.5 T 292 334 M 304 334 m -1, 0 a 1,1 0 1,0 2,0 a 1,1 0 1,0 -2,0 M 304 334 m -0.5, 0 a 0.5,0.5 0 1,0 1,0 a 0.5,0.5 0 1,0 -1,0  M304 334 L304 334 292 334 M298 340 L298 340 298 328" id="h129275025" class="r"></path><path d="M 199.03 276 m -1, 0 a 1,1 0 1,0 2,0 a 1,1 0 1,0 -2,0 M 199.03 276 m -0.5, 0 a 0.5,0.5 0 1,0 1,0 a 0.5,0.5 0 1,0 -1,0  M199.03 276 L199.03 276 211.03 276 M 199.03 282 m -1, 0 a 1,1 0 1,0 2,0 a 1,1 0 1,0 -2,0 M 199.03 282 m -0.5, 0 a 0.5,0.5 0 1,0 1,0 a 0.5,0.5 0 1,0 -1,0  M199.03 282 L199.03 282 206.03 276 199.03 270 M 199.03 270 m -1, 0 a 1,1 0 1,0 2,0 a 1,1 0 1,0 -2,0 M 199.03 270 m -0.5, 0 a 0.5,0.5 0 1,0 1,0 a 0.5,0.5 0 1,0 -1,0  M211.03 276 C 261.03 276, 303.564 423, 140.14 423 M 128.14 423 m -1, 0 a 1,1 0 1,0 2,0 a 1,1 0 1,0 -2,0 M 128.14 423 m -0.5, 0 a 0.5,0.5 0 1,0 1,0 a 0.5,0.5 0 1,0 -1,0  M128.14 423 L128.14 423 140.14 423 M134.14 429 L134.14 429 134.14 417" id="h2585539340" class="r"></path></g><g class="hrs"></g><g class="ts"><svg width="155.14" height="125" x="213" y="492" id="h1156282791" class="t"><rect height="40" width="155.14" class="th"></rect><text x="13" y="25" class="tht">player</text><rect height="85" width="155.14" class="t-bg"></rect><text x="13" y="61" class="tf pk">id<tspan x="142.14" class="ty">SERIAL</tspan></text><path d="M7,14A2,2 0 0,1 5,12A2,2 0 0,1 7,10A2,2 0 0,1 9,12A2,2 0 0,1 7,14M12.65,10C11.83,7.67 9.61,6 7, 6A6, 6 0 0, 0 1, 12A6, 6 0 0, 0 7, 18C9.61, 18 11.83, 16.33 12.65, 14H17V18H21V14H23V10H12.65Z" class="i pk" transform="translate(79.45445312499999, 48) scale(0.65)"></path><text x="13" y="86" class="tf">name<tspan x="142.14" class="ty">VARCHAR(25)</tspan></text><text x="13" y="111" class="tf fk">team_id<tspan x="142.14" class="ty">INT</tspan></text></svg><svg width="155.14" height="100" x="-27" y="366" id="h3292392105" class="t"><rect height="40" width="155.14" class="th"></rect><text x="13" y="25" class="tht">team</text><rect height="60" width="155.14" class="t-bg"></rect><text x="13" y="61" class="tf pk">id<tspan x="142.14" class="ty">SERIAL</tspan></text><path d="M7,14A2,2 0 0,1 5,12A2,2 0 0,1 7,10A2,2 0 0,1 9,12A2,2 0 0,1 7,14M12.65,10C11.83,7.67 9.61,6 7, 6A6, 6 0 0, 0 1, 12A6, 6 0 0, 0 7, 18C9.61, 18 11.83, 16.33 12.65, 14H17V18H21V14H23V10H12.65Z" class="i pk" transform="translate(79.45445312499999, 48) scale(0.65)"></path><text x="13" y="86" class="tf">name<tspan x="142.14" class="ty">VARCHAR(25)</tspan></text></svg><svg width="118.03" height="150" x="81" y="169" id="h3479580529" class="t"><rect height="40" width="118.03" class="th"></rect><text x="13" y="25" class="tht">results</text><rect height="110" width="118.03" class="t-bg"></rect><text x="13" y="61" class="tf pk">id<tspan x="105.03" class="ty">SERIAL</tspan></text><path d="M7,14A2,2 0 0,1 5,12A2,2 0 0,1 7,10A2,2 0 0,1 9,12A2,2 0 0,1 7,14M12.65,10C11.83,7.67 9.61,6 7, 6A6, 6 0 0, 0 1, 12A6, 6 0 0, 0 7, 18C9.61, 18 11.83, 16.33 12.65, 14H17V18H21V14H23V10H12.65Z" class="i pk" transform="translate(42.344453125, 48) scale(0.65)"></path><text x="13" y="86" class="tf fk">game_id<tspan x="105.03" class="ty">INT</tspan></text><text x="13" y="111" class="tf fk">team_id<tspan x="105.03" class="ty">INT</tspan></text><text x="13" y="136" class="tf">result<tspan x="105.03" class="ty">INT</tspan></text></svg><svg width="130.48" height="125" x="304" y="128" id="h161438138" class="t"><rect height="40" width="130.48" class="th"></rect><text x="13" y="25" class="tht">season</text><rect height="85" width="130.48" class="t-bg"></rect><text x="13" y="61" class="tf pk">id<tspan x="117.47999999999999" class="ty">SERIAL</tspan></text><path d="M7,14A2,2 0 0,1 5,12A2,2 0 0,1 7,10A2,2 0 0,1 9,12A2,2 0 0,1 7,14M12.65,10C11.83,7.67 9.61,6 7, 6A6, 6 0 0, 0 1, 12A6, 6 0 0, 0 7, 18C9.61, 18 11.83, 16.33 12.65, 14H17V18H21V14H23V10H12.65Z" class="i pk" transform="translate(54.79445312499999, 48) scale(0.65)"></path><text x="13" y="86" class="tf">start_date<tspan x="117.47999999999999" class="ty">DATE</tspan></text><text x="13" y="111" class="tf">end_date<tspan x="117.47999999999999" class="ty">DATE</tspan></text></svg><svg width="118.03" height="175" x="304" y="277" id="h961075634" class="t"><rect height="40" width="118.03" class="th"></rect><text x="13" y="25" class="tht">game</text><rect height="135" width="118.03" class="t-bg"></rect><text x="13" y="61" class="tf pk">id<tspan x="105.03" class="ty">SERIAL</tspan></text><path d="M7,14A2,2 0 0,1 5,12A2,2 0 0,1 7,10A2,2 0 0,1 9,12A2,2 0 0,1 7,14M12.65,10C11.83,7.67 9.61,6 7, 6A6, 6 0 0, 0 1, 12A6, 6 0 0, 0 7, 18C9.61, 18 11.83, 16.33 12.65, 14H17V18H21V14H23V10H12.65Z" class="i pk" transform="translate(42.344453125, 48) scale(0.65)"></path><text x="13" y="86" class="tf fk">season<tspan x="105.03" class="ty">INT</tspan></text><text x="13" y="111" class="tf fk">team_1<tspan x="105.03" class="ty">INT</tspan></text><text x="13" y="136" class="tf fk">team_2<tspan x="105.03" class="ty">INT</tspan></text><text x="13" y="161" class="tf">date<tspan x="105.03" class="ty">DATE</tspan></text></svg><svg width="118.03" height="125" x="540" y="113" id="h3698759952" class="t"><rect height="40" width="118.03" class="th"></rect><text x="13" y="25" class="tht">game_referee</text><rect height="85" width="118.03" class="t-bg"></rect><text x="13" y="61" class="tf pk">id<tspan x="105.03" class="ty">SERIAL</tspan></text><path d="M7,14A2,2 0 0,1 5,12A2,2 0 0,1 7,10A2,2 0 0,1 9,12A2,2 0 0,1 7,14M12.65,10C11.83,7.67 9.61,6 7, 6A6, 6 0 0, 0 1, 12A6, 6 0 0, 0 7, 18C9.61, 18 11.83, 16.33 12.65, 14H17V18H21V14H23V10H12.65Z" class="i pk" transform="translate(42.344453125, 48) scale(0.65)"></path><text x="13" y="86" class="tf fk">game_id<tspan x="105.03" class="ty">INT</tspan></text><text x="13" y="111" class="tf fk">ref_id<tspan x="105.03" class="ty">INT</tspan></text></svg><svg width="155.14" height="100" x="543" y="286" id="h1973116944" class="t"><rect height="40" width="155.14" class="th"></rect><text x="13" y="25" class="tht">referee</text><rect height="60" width="155.14" class="t-bg"></rect><text x="13" y="61" class="tf pk">id<tspan x="142.14" class="ty">SERIAL</tspan></text><path d="M7,14A2,2 0 0,1 5,12A2,2 0 0,1 7,10A2,2 0 0,1 9,12A2,2 0 0,1 7,14M12.65,10C11.83,7.67 9.61,6 7, 6A6, 6 0 0, 0 1, 12A6, 6 0 0, 0 7, 18C9.61, 18 11.83, 16.33 12.65, 14H17V18H21V14H23V10H12.65Z" class="i pk" transform="translate(79.45445312499999, 48) scale(0.65)"></path><text x="13" y="86" class="tf">name<tspan x="142.14" class="ty">VARCHAR(25)</tspan></text></svg><svg width="118.03" height="125" x="515" y="429" id="h3331528132" class="t"><rect height="40" width="118.03" class="th"></rect><text x="13" y="25" class="tht">goal</text><rect height="85" width="118.03" class="t-bg"></rect><text x="13" y="61" class="tf pk">id<tspan x="105.03" class="ty">SERIAL</tspan></text><path d="M7,14A2,2 0 0,1 5,12A2,2 0 0,1 7,10A2,2 0 0,1 9,12A2,2 0 0,1 7,14M12.65,10C11.83,7.67 9.61,6 7, 6A6, 6 0 0, 0 1, 12A6, 6 0 0, 0 7, 18C9.61, 18 11.83, 16.33 12.65, 14H17V18H21V14H23V10H12.65Z" class="i pk" transform="translate(42.344453125, 48) scale(0.65)"></path><text x="13" y="86" class="tf fk">game_id<tspan x="105.03" class="ty">INT</tspan></text><text x="13" y="111" class="tf fk">player_id<tspan x="105.03" class="ty">INT</tspan></text></svg></g></g><text class="qdbd-link" x="10" y="20">www.quickdatabasediagrams.com</text></svg>